<svg width="2128" height="809" viewBox="0 0 2128 809" fill="none" xmlns="http://www.w3.org/2000/svg">
<path d="M543.017 105.931H537.22V51.0467H521.699V47.1197C533.574 47.1197 536.566 45.9042 539.09 37.5827H543.017V105.931ZM576.254 105.931H570.457V51.0467H554.936V47.1197C566.81 47.1197 569.802 45.9042 572.327 37.5827H576.254V105.931Z" fill="black"/>
<path d="M1053.76 105.931H1047.96V51.0467H1032.44V47.1197C1044.32 47.1197 1047.31 45.9042 1049.83 37.5827H1053.76V105.931ZM1089.96 36.9281C1102.4 36.9281 1110.44 43.4731 1110.44 54.4127C1110.44 68.1572 1098.66 81.5277 1073.7 100.321H1112.5V105.931H1065.65V100.134C1090.62 81.1537 1104.27 67.6897 1104.27 55.0671C1104.27 46.3717 1097.63 42.0706 1089.96 42.0706C1081.46 42.0706 1073.7 46.0911 1073.41 59.0876H1067.24C1067.9 44.5952 1076.5 36.9281 1089.96 36.9281Z" fill="black"/>
<path d="M1579.7 105.931H1573.9V51.0467H1558.38V47.1197C1570.26 47.1197 1573.25 45.9042 1575.77 37.5827H1579.7V105.931Z" fill="black"/>
<path d="M2095.07 36.9281C2107.51 36.9281 2115.55 43.4731 2115.55 54.4127C2115.55 68.1572 2103.77 81.5277 2078.8 100.321H2117.61V105.931H2070.76V100.134C2095.73 81.1537 2109.38 67.6897 2109.38 55.0671C2109.38 46.3717 2102.74 42.0706 2095.07 42.0706C2086.56 42.0706 2078.8 46.0911 2078.52 59.0876H2072.35C2073.01 44.5952 2081.61 36.9281 2095.07 36.9281Z" fill="black"/>
<path d="M21.7555 105.931H15.9585V51.0467H0.4375V47.1197C12.312 47.1197 15.304 45.9042 17.8285 37.5827H21.7555V105.931ZM61.9788 107.147C44.0268 107.147 35.8923 93.5892 35.8923 71.9907C35.8923 50.5792 44.0268 36.9281 61.9788 36.9281C79.7438 36.9281 87.9718 50.5792 87.9718 71.9907C87.9718 93.5892 79.7438 107.147 61.9788 107.147ZM61.9788 102.004C74.1338 102.004 81.8943 92.4672 81.8943 71.9907C81.8943 51.7011 74.1338 42.0706 61.9788 42.0706C49.7303 42.0706 42.0633 51.7011 42.0633 71.9907C42.0633 92.4672 49.7303 102.004 61.9788 102.004Z" fill="black"/>
<path d="M44.0085 381.055C44.0085 370.676 36.809 363.477 26.711 363.477C16.5195 363.477 9.4135 370.676 9.4135 381.055C9.4135 392.088 16.239 399.381 26.711 399.381C37.183 399.381 44.0085 392.088 44.0085 381.055ZM25.589 423.41C37.557 423.41 45.1305 413.219 45.1305 393.677C42.045 400.035 35.0325 404.523 26.0565 404.523C12.5925 404.523 3.2425 394.799 3.2425 381.335C3.2425 368.619 12.4055 358.334 26.711 358.334C43.4475 358.334 51.021 370.302 51.021 390.685C51.021 411.91 44.1955 428.553 24.654 428.553C12.499 428.553 5.58 421.166 4.3645 411.723H10.629C11.751 419.67 17.6415 423.41 25.589 423.41Z" fill="black"/>
<path d="M2097.97 423.41C2108.25 423.41 2115.73 418.081 2115.73 408.637C2115.73 398.259 2107.88 394.051 2095.16 394.051H2094.6V388.909H2095.16C2107.88 388.909 2113.96 384.234 2113.96 376.006C2113.96 368.993 2108.44 363.477 2098.44 363.477C2091.33 363.477 2083.2 367.31 2081.7 377.782H2075.53C2077.03 366.188 2085.35 358.334 2098.9 358.334C2111.9 358.334 2120.13 364.879 2120.13 375.445C2120.13 382.177 2116.58 388.628 2109 391.246C2116.2 393.21 2121.91 398.072 2121.91 408.544C2121.91 422.008 2110.69 428.553 2098.06 428.553C2084.51 428.553 2075.44 419.764 2074.22 408.263H2080.39C2082.35 418.735 2089.93 423.41 2097.97 423.41Z" fill="black"/>
<path d="M28.6745 703.116C42.419 703.116 50.9275 710.222 50.9275 720.039C50.9275 728.174 46.72 733.316 40.736 735.841C48.216 738.926 52.9845 744.256 52.9845 753.325C52.9845 766.041 42.606 773.334 28.6745 773.334C14.8365 773.334 4.458 766.041 4.458 753.325C4.458 744.256 9.133 738.926 16.613 735.841C10.7225 733.316 6.515 728.174 6.515 720.039C6.515 710.222 14.93 703.116 28.6745 703.116ZM28.6745 738.178C17.735 738.178 10.629 744.256 10.629 753.325C10.629 762.395 17.735 768.192 28.6745 768.192C39.801 768.192 46.8135 762.395 46.8135 753.325C46.8135 744.256 39.7075 738.178 28.6745 738.178ZM44.9435 720.974C44.9435 712.84 38.679 708.258 28.6745 708.258C18.857 708.258 12.499 712.84 12.499 720.974C12.499 728.922 18.857 733.69 28.6745 733.69C38.679 733.69 44.9435 728.922 44.9435 720.974Z" fill="black"/>
<path d="M532.686 709.941V704.331H578.969V709.941C561.017 723.125 549.423 743.414 548.394 772.119H541.943C543.719 741.544 555.781 721.816 571.863 709.941H532.686Z" fill="black"/>
<path d="M1061.01 750.614C1061.01 760.992 1068.21 768.192 1078.31 768.192C1088.5 768.192 1095.6 760.992 1095.6 750.614C1095.6 739.487 1088.78 732.288 1078.31 732.288C1067.83 732.288 1061.01 739.487 1061.01 750.614ZM1079.43 708.258C1067.55 708.258 1059.89 718.45 1059.89 737.991C1062.97 731.633 1069.98 727.145 1078.96 727.145C1092.42 727.145 1101.77 736.869 1101.77 750.333C1101.77 763.049 1092.61 773.334 1078.31 773.334C1061.57 773.334 1054 761.366 1054 740.89C1054 719.572 1060.82 703.116 1080.36 703.116C1092.52 703.116 1099.44 710.222 1100.65 719.946H1094.48C1093.27 711.998 1087.37 708.258 1079.43 708.258Z" fill="black"/>
<path d="M1574.46 768.192C1583.91 768.192 1591.95 761.74 1591.95 749.959C1591.95 737.243 1582.88 732.007 1574.28 732.007C1566.61 732.007 1560.25 736.121 1558.29 740.703L1552.58 740.142L1556.98 704.331H1595.31V709.941H1562.03L1559.04 733.129C1562.31 729.389 1569.04 726.771 1575.68 726.771C1588.21 726.771 1598.12 734.906 1598.12 749.866C1598.12 765.293 1586.8 773.334 1574.46 773.334C1561 773.334 1551.93 764.545 1550.71 753.045H1556.88C1558.85 763.517 1566.42 768.192 1574.46 768.192Z" fill="black"/>
<path d="M2104.28 712.372L2074.73 748.65H2104.28V712.372ZM2123.26 748.65V754.354H2110.08V772.119H2104.28V754.354H2067.82V749.118L2104.37 704.331H2110.08V748.65H2123.26Z" fill="black"/>
<path d="M1065.17 156.375L1058.42 168.062L1071.92 168.063L1065.17 156.375ZM1065.17 399.21L1071.92 392.462L1065.17 385.715L1058.42 392.462L1065.17 399.21ZM1064 166.894L1064 392.462L1066.34 392.462L1066.34 166.894L1064 166.894Z" fill="black"/>
<path d="M1300.09 392.462L1288.4 385.715L1288.4 399.21L1300.09 392.462ZM1289.57 391.294L1064 391.294L1064 393.631L1289.57 393.631L1289.57 391.294Z" fill="black"/>
</svg>
