<svg width="1126" height="1108" viewBox="0 0 1126 1108" fill="none" xmlns="http://www.w3.org/2000/svg">
<rect x="1.80781" y="859.366" width="890.532" height="171.741" stroke="black" stroke-width="3.50625"/>
<rect x="1.80781" y="1030.91" width="428.931" height="39.7375" stroke="black" stroke-width="3.50625"/>
<path d="M57.5096 1088.69C57.5096 1097.73 48.0925 1105.71 35.5796 1105.71C23.0667 1105.71 13.6496 1097.73 13.6496 1088.69C13.6496 1079.64 23.0667 1071.66 35.5796 1071.66C48.0925 1071.66 57.5096 1079.64 57.5096 1088.69Z" stroke="black" stroke-width="3.50625"/>
<path d="M412.758 1088.69C412.758 1097.73 403.341 1105.71 390.828 1105.71C378.315 1105.71 368.898 1097.73 368.898 1088.69C368.898 1079.64 378.315 1071.66 390.828 1071.66C403.341 1071.66 412.758 1079.64 412.758 1088.69Z" stroke="black" stroke-width="3.50625"/>
<rect x="416.714" y="847.415" width="174.144" height="11.6875" stroke="black" stroke-width="3.50625"/>
<rect x="428.103" y="475.297" width="150.434" height="372.025" stroke="black" stroke-width="3.50625"/>
<rect x="729.939" y="769.11" width="162.456" height="89.9938" stroke="black" stroke-width="3.50625"/>
<rect x="132.706" y="734.047" width="162.456" height="125.056" stroke="black" stroke-width="3.50625"/>
<rect x="1.75313" y="-1.75313" width="363.481" height="23.375" transform="matrix(1 0 0 -1 29.2715 732.294)" stroke="black" stroke-width="3.50625"/>
<rect x="1.75313" y="-1.75313" width="363.304" height="477.22" transform="matrix(1 0 0 -1 29.6719 708.608)" stroke="black" stroke-width="3.50625"/>
<rect x="1.75313" y="-1.75313" width="363.582" height="397.06" transform="matrix(1 0 0 -1 29.6582 628.786)" stroke="black" stroke-width="3.50625"/>
<rect x="415.063" y="655.575" width="20.1769" height="171.741" transform="rotate(180 415.063 655.575)" stroke="black" stroke-width="3.50625"/>
<rect x="31.5184" y="655.575" width="20.1769" height="171.741" transform="rotate(180 31.5184 655.575)" stroke="black" stroke-width="3.50625"/>
<rect x="87.1121" y="630.539" width="55.7015" height="271.883" transform="rotate(180 87.1121 630.539)" stroke="black" stroke-width="3.50625"/>
<rect x="394.993" y="630.539" width="55.7015" height="271.883" transform="rotate(180 394.993 630.539)" stroke="black" stroke-width="3.50625"/>
<rect x="394.993" y="630.539" width="55.7015" height="240.589" transform="rotate(180 394.993 630.539)" stroke="black" stroke-width="3.50625"/>
<rect x="394.993" y="630.539" width="55.7015" height="240.589" transform="rotate(180 394.993 630.539)" stroke="black" stroke-width="3.50625"/>
<rect x="394.993" y="630.539" width="55.7015" height="228.071" transform="rotate(180 394.993 630.539)" stroke="black" stroke-width="3.50625"/>
<rect x="394.993" y="630.539" width="55.7015" height="203.036" transform="rotate(180 394.993 630.539)" stroke="black" stroke-width="3.50625"/>
<rect x="394.993" y="630.539" width="55.7015" height="190.518" transform="rotate(180 394.993 630.539)" stroke="black" stroke-width="3.50625"/>
<rect x="394.993" y="630.539" width="55.7015" height="165.483" transform="rotate(180 394.993 630.539)" stroke="black" stroke-width="3.50625"/>
<rect x="394.993" y="630.539" width="55.7015" height="146.706" transform="rotate(180 394.993 630.539)" stroke="black" stroke-width="3.50625"/>
<rect x="394.993" y="630.539" width="55.7015" height="146.706" transform="rotate(180 394.993 630.539)" stroke="black" stroke-width="3.50625"/>
<rect x="394.993" y="630.539" width="55.7015" height="115.412" transform="rotate(180 394.993 630.539)" stroke="black" stroke-width="3.50625"/>
<rect x="394.993" y="630.539" width="55.7015" height="90.3765" transform="rotate(180 394.993 630.539)" stroke="black" stroke-width="3.50625"/>
<rect x="394.993" y="630.539" width="55.7015" height="77.8588" transform="rotate(180 394.993 630.539)" stroke="black" stroke-width="3.50625"/>
<rect x="394.993" y="630.539" width="55.7015" height="52.8234" transform="rotate(180 394.993 630.539)" stroke="black" stroke-width="3.50625"/>
<rect x="394.993" y="630.539" width="55.7015" height="34.0468" transform="rotate(180 394.993 630.539)" stroke="black" stroke-width="3.50625"/>
<rect x="394.993" y="630.539" width="55.7015" height="134.188" transform="rotate(180 394.993 630.539)" stroke="black" stroke-width="3.50625"/>
<rect x="87.1121" y="630.539" width="55.7015" height="240.589" transform="rotate(180 87.1121 630.539)" stroke="black" stroke-width="3.50625"/>
<rect x="87.1121" y="630.539" width="55.7015" height="228.071" transform="rotate(180 87.1121 630.539)" stroke="black" stroke-width="3.50625"/>
<rect x="87.1121" y="630.539" width="55.7015" height="203.036" transform="rotate(180 87.1121 630.539)" stroke="black" stroke-width="3.50625"/>
<rect x="87.1121" y="630.539" width="55.7015" height="190.518" transform="rotate(180 87.1121 630.539)" stroke="black" stroke-width="3.50625"/>
<rect x="87.1121" y="630.539" width="55.7015" height="165.483" transform="rotate(180 87.1121 630.539)" stroke="black" stroke-width="3.50625"/>
<rect x="87.1121" y="630.539" width="55.7015" height="146.706" transform="rotate(180 87.1121 630.539)" stroke="black" stroke-width="3.50625"/>
<rect x="87.1121" y="630.539" width="55.7015" height="115.412" transform="rotate(180 87.1121 630.539)" stroke="black" stroke-width="3.50625"/>
<rect x="87.1121" y="630.539" width="55.7015" height="90.3765" transform="rotate(180 87.1121 630.539)" stroke="black" stroke-width="3.50625"/>
<rect x="87.1121" y="630.539" width="55.7015" height="77.8588" transform="rotate(180 87.1121 630.539)" stroke="black" stroke-width="3.50625"/>
<rect x="87.1121" y="630.539" width="55.7015" height="52.8234" transform="rotate(180 87.1121 630.539)" stroke="black" stroke-width="3.50625"/>
<rect x="87.1121" y="630.539" width="55.7015" height="34.0468" transform="rotate(180 87.1121 630.539)" stroke="black" stroke-width="3.50625"/>
<rect x="87.1121" y="630.539" width="55.7015" height="134.188" transform="rotate(180 87.1121 630.539)" stroke="black" stroke-width="3.50625"/>
<rect x="1.75313" y="-1.75313" width="363.582" height="52.8234" transform="matrix(1 0 0 -1 29.6582 284.55)" stroke="black" stroke-width="3.50625"/>
<rect x="1.75313" y="-1.75313" width="363.481" height="35.0625" transform="matrix(1 0 0 -1 29.2715 265.962)" stroke="black" stroke-width="3.50625"/>
<rect x="125.695" y="134.478" width="174.144" height="98.175" stroke="black" stroke-width="3.50625"/>
<rect x="1.75313" y="-1.75313" width="44.4125" height="29.2187" transform="matrix(1 0 0 -1 189.391 132.725)" stroke="black" stroke-width="3.50625"/>
<rect x="185.353" y="1.90266" width="55.7015" height="102.894" stroke="black" stroke-width="3.50625"/>
<rect x="185.353" y="1.90266" width="55.7015" height="84.1176" stroke="black" stroke-width="3.50625"/>
<path d="M320.984 435.139C320.984 498.212 272.638 549.174 213.202 549.174C153.767 549.174 105.421 498.212 105.421 435.139C105.421 372.066 153.767 321.103 213.202 321.103C272.638 321.103 320.984 372.066 320.984 435.139Z" stroke="black" stroke-width="3.50625"/>
<path d="M246.974 432.01C246.974 451.874 231.763 467.81 213.202 467.81C194.641 467.81 179.431 451.874 179.431 432.01C179.431 412.145 194.641 396.21 213.202 396.21C231.763 396.21 246.974 412.145 246.974 432.01Z" stroke="black" stroke-width="3.50625"/>
<path d="M291.381 435.14C291.381 480.93 256.29 517.881 213.204 517.881C170.118 517.881 135.027 480.93 135.027 435.14C135.027 389.35 170.118 352.399 213.204 352.399C256.29 352.399 291.381 389.35 291.381 435.14Z" stroke="black" stroke-width="3.50625"/>
<path d="M279.54 435.139C279.54 474.015 249.75 505.363 213.204 505.363C176.658 505.363 146.868 474.015 146.868 435.139C146.868 396.263 176.658 364.915 213.204 364.915C249.75 364.915 279.54 396.263 279.54 435.139Z" stroke="black" stroke-width="3.50625"/>
<rect x="165.253" y="14.4201" width="20.1769" height="40.3057" stroke="black" stroke-width="3.50625"/>
<rect x="241.284" y="20.1337" width="150.634" height="28.3983" stroke="black" stroke-width="3.50625"/>
<rect x="392.659" y="14.4212" width="24.9728" height="39.7819" stroke="black" stroke-width="3.50625"/>
<path d="M130.311 503.988L130.311 629.165" stroke="black" stroke-width="3.50625"/>
<path d="M159.914 535.281L159.914 629.164" stroke="black" stroke-width="3.50625"/>
<path d="M195.439 547.8L195.439 629.165" stroke="black" stroke-width="3.50625"/>
<path d="M230.963 547.8L230.963 629.165" stroke="black" stroke-width="3.50625"/>
<path d="M266.488 534.656L266.488 628.539" stroke="black" stroke-width="3.50625"/>
<path d="M302.012 497.102L302.012 628.537" stroke="black" stroke-width="3.50625"/>
<path d="M85.9043 360.034V303.704H127.35V369.422" stroke="black" stroke-width="3.50625"/>
<path d="M340.498 360.033V303.704H299.053V369.422" stroke="black" stroke-width="3.50625"/>
<path d="M72.3098 328.74C72.3098 336.506 66.3772 342.634 59.2609 342.634C52.1447 342.634 46.2121 336.506 46.2121 328.74C46.2121 320.973 52.1447 314.846 59.2609 314.846C66.3772 314.846 72.3098 320.973 72.3098 328.74Z" stroke="black" stroke-width="3.50625"/>
<path d="M380.191 328.74C380.191 336.506 374.258 342.634 367.142 342.634C360.026 342.634 354.093 336.506 354.093 328.74C354.093 320.973 360.026 314.846 367.142 314.846C374.258 314.846 380.191 320.973 380.191 328.74Z" stroke="black" stroke-width="3.50625"/>
<rect x="82.3918" y="734.186" width="49.7808" height="27.788" stroke="black" stroke-width="3.50625"/>
<rect x="327.448" y="734.186" width="49.7808" height="27.788" stroke="black" stroke-width="3.50625"/>
<rect x="327.448" y="688.097" width="37.9392" height="21.5291" stroke="black" stroke-width="3.50625"/>
<rect x="90.6203" y="688.097" width="37.9392" height="21.5291" stroke="black" stroke-width="3.50625"/>
<path d="M78.2333 660.458C78.2333 671.681 69.6499 680.611 59.2637 680.611C48.8776 680.611 40.2941 671.681 40.2941 660.458C40.2941 649.235 48.8776 640.305 59.2637 640.305C69.6499 640.305 78.2333 649.235 78.2333 660.458Z" stroke="black" stroke-width="3.50625"/>
<path d="M386.114 660.458C386.114 671.681 377.531 680.611 367.145 680.611C356.758 680.611 348.175 671.681 348.175 660.458C348.175 649.235 356.758 640.305 367.145 640.305C377.531 640.305 386.114 649.235 386.114 660.458Z" stroke="black" stroke-width="3.50625"/>
<line x1="414.51" y1="542.916" x2="426.351" y2="542.916" stroke="black" stroke-width="3.50625"/>
<line x1="580.293" y1="542.916" x2="592.135" y2="542.916" stroke="black" stroke-width="3.50625"/>
<line x1="859.706" y1="369.42" x2="859.706" y2="381.938" stroke="black" stroke-width="3.50625"/>
<line x1="664.802" y1="373.783" x2="664.802" y2="740.593" stroke="black" stroke-width="3.50625"/>
<line x1="647.714" y1="377.2" x2="647.714" y2="419.349" stroke="black" stroke-width="3.50625"/>
<line x1="666.143" y1="393.08" x2="648.38" y2="393.08" stroke="black" stroke-width="3.50625"/>
<line x1="666.143" y1="483.834" x2="624.697" y2="483.834" stroke="black" stroke-width="3.50625"/>
<line x1="666.143" y1="727.929" x2="624.697" y2="727.929" stroke="black" stroke-width="3.50625"/>
<line x1="664.439" y1="727.399" x2="626.593" y2="766.242" stroke="black" stroke-width="3.50625"/>
<line x1="665.082" y1="484.664" x2="625.345" y2="449.602" stroke="black" stroke-width="3.50625"/>
<line x1="959.223" y1="452.538" x2="663.184" y2="452.538" stroke="black" stroke-width="3.50625"/>
<line x1="959.223" y1="471.316" x2="663.184" y2="471.316" stroke="black" stroke-width="3.50625"/>
<line x1="959.223" y1="490.092" x2="663.184" y2="490.092" stroke="black" stroke-width="3.50625"/>
<line x1="959.223" y1="508.869" x2="663.184" y2="508.869" stroke="black" stroke-width="3.50625"/>
<line x1="961.215" y1="527.238" x2="663.184" y2="527.238" stroke="black" stroke-width="3.50625"/>
<line x1="716.469" y1="546.423" x2="663.182" y2="546.423" stroke="black" stroke-width="3.50625"/>
<line x1="716.469" y1="565.199" x2="663.182" y2="565.199" stroke="black" stroke-width="3.50625"/>
<line x1="716.469" y1="583.975" x2="663.182" y2="583.975" stroke="black" stroke-width="3.50625"/>
<line x1="716.469" y1="602.752" x2="663.182" y2="602.752" stroke="black" stroke-width="3.50625"/>
<line x1="961.215" y1="545.938" x2="887.584" y2="545.938" stroke="black" stroke-width="3.50625"/>
<line x1="961.215" y1="565.807" x2="887.584" y2="565.807" stroke="black" stroke-width="3.50625"/>
<line x1="961.215" y1="584.507" x2="887.584" y2="584.507" stroke="black" stroke-width="3.50625"/>
<line x1="961.215" y1="603.207" x2="887.584" y2="603.207" stroke="black" stroke-width="3.50625"/>
<line x1="961.215" y1="624.245" x2="716.946" y2="624.245" stroke="black" stroke-width="3.50625"/>
<line x1="963.105" y1="640.547" x2="662.737" y2="640.547" stroke="black" stroke-width="3.50625"/>
<line x1="961.938" y1="659.247" x2="662.737" y2="659.247" stroke="black" stroke-width="3.50625"/>
<line x1="961.938" y1="677.947" x2="662.737" y2="677.947" stroke="black" stroke-width="3.50625"/>
<line x1="961.938" y1="715.347" x2="662.737" y2="715.347" stroke="black" stroke-width="3.50625"/>
<line x1="1006.7" y1="742.228" x2="663.294" y2="742.228" stroke="black" stroke-width="3.50625"/>
<line x1="1079.39" y1="402.993" x2="1079.39" y2="740.97" stroke="black" stroke-width="3.50625"/>
<line x1="580.293" y1="605.503" x2="592.135" y2="605.503" stroke="black" stroke-width="3.50625"/>
<line x1="414.51" y1="605.503" x2="426.351" y2="605.503" stroke="black" stroke-width="3.50625"/>
<rect x="593.886" y="352.398" width="32.0184" height="434.613" stroke="black" stroke-width="3.50625"/>
<rect x="1.75313" y="-1.75313" width="195.181" height="28.05" transform="matrix(1 0 0 -1 662.736 372.319)" stroke="black" stroke-width="3.50625"/>
<rect x="1.75313" y="-1.75313" width="38.5688" height="39.7375" transform="matrix(1 0 0 -1 624.168 415.562)" stroke="black" stroke-width="3.50625"/>
<rect x="1.75313" y="-1.75313" width="255.956" height="26.8813" transform="matrix(1 0 0 -1 681.438 767.356)" stroke="black" stroke-width="3.50625"/>
<rect x="961.352" y="417.315" width="101.681" height="33.8938" transform="rotate(180 961.352 417.315)" stroke="black" stroke-width="3.50625"/>
<path d="M961.353 742.228H1109.38C1117.35 742.228 1123.81 735.769 1123.81 727.801V397.848C1123.81 389.88 1117.35 383.422 1109.38 383.422H961.353V742.228Z" stroke="black" stroke-width="3.50625"/>
<rect x="718.222" y="527.645" width="168.196" height="96.6353" stroke="black" stroke-width="3.50625"/>
<rect x="689.034" y="677.947" width="43.2438" height="37.4" stroke="black" stroke-width="3.50625"/>
<rect x="890.058" y="677.947" width="43.2438" height="37.4" stroke="black" stroke-width="3.50625"/>
<line x1="747.96" y1="679.078" x2="747.96" y2="716.67" stroke="black" stroke-width="3.50625"/>
<line x1="872.128" y1="679.078" x2="872.128" y2="715.531" stroke="black" stroke-width="3.50625"/>
<path d="M708.794 621.735C708.794 629.502 702.862 635.629 695.745 635.629C688.629 635.629 682.696 629.502 682.696 621.735C682.696 613.969 688.629 607.841 695.745 607.841C702.862 607.841 708.794 613.969 708.794 621.735Z" stroke="black" stroke-width="3.50625"/>
<path d="M1016.68 663.588C1016.68 669.626 1012.07 674.352 1006.59 674.352C1001.11 674.352 996.499 669.626 996.499 663.588C996.499 657.55 1001.11 652.823 1006.59 652.823C1012.07 652.823 1016.68 657.55 1016.68 663.588Z" stroke="black" stroke-width="3.50625"/>
<path d="M815.37 410.103C815.37 417.87 809.438 423.997 802.321 423.997C795.205 423.997 789.273 417.87 789.273 410.103C789.273 402.337 795.205 396.209 802.321 396.209C809.438 396.209 815.37 402.337 815.37 410.103Z" stroke="black" stroke-width="3.50625"/>
<path d="M827.21 410.103C827.21 424.783 815.975 436.515 802.319 436.515C788.663 436.515 777.429 424.783 777.429 410.103C777.429 395.423 788.663 383.691 802.319 383.691C815.975 383.691 827.21 395.423 827.21 410.103Z" stroke="black" stroke-width="3.50625"/>
<rect x="625.921" y="621.847" width="22.2062" height="58.4375" stroke="black" stroke-width="3.50625"/>
<rect x="649.296" y="627.69" width="15.1938" height="46.75" stroke="black" stroke-width="3.50625"/>
</svg>
